<?xml version="1.0" encoding="iso-8859-1"?>
<!-- Generator: Adobe Illustrator 21.1.0, SVG Export Plug-In . SVG Version: 6.00 Build 0)  -->
<svg xmlns="http://www.w3.org/2000/svg" xmlns:xlink="http://www.w3.org/1999/xlink" version="1.1" id="Layer_1" x="0px" y="0px" viewBox="0 0 64 64" style="enable-background:new 0 0 64 64;" xml:space="preserve">
<g>
	<g>
		<path style="fill:#C2CDE7;" d="M3,16v29c0,5.523,11.193,10,25,10s25-4.477,25-10l-6.078-9.808L53,32V16H3z"/>
		<path style="fill:#CED8ED;" d="M10,16H3v29c0,2.694,2.669,5.138,7,6.936V16z"/>
		<path style="fill:#B5C4E0;" d="M38,16v38.166C46.828,52.622,53,49.1,53,45V16H38z"/>
		<ellipse style="fill:#CED8ED;" cx="28" cy="15" rx="25" ry="10"/>
	</g>
	<polygon style="fill:#72CAAF;" points="55,27 55,50 59,46 63,50 52,61 41,50 45,46 49,50 49,27  "/>
	<g>
		<path style="fill:#8D6C9F;" d="M29.106,10.01c0.944,0.017,1.896,0.058,2.831,0.121c0.023,0.002,0.046,0.002,0.068,0.002    c0.521,0,0.961-0.405,0.997-0.933c0.037-0.551-0.379-1.027-0.931-1.064C31.104,8.07,30.12,8.028,29.144,8.01    c-0.554,0.025-1.008,0.429-1.019,0.981C28.115,9.544,28.554,10,29.106,10.01z"/>
		<path style="fill:#8D6C9F;" d="M16.183,11.301c0.081,0,0.163-0.01,0.245-0.03c2.407-0.604,5.281-1.013,8.312-1.182    c0.551-0.031,0.974-0.503,0.943-1.054c-0.031-0.551-0.498-0.973-1.054-0.943c-3.156,0.176-6.161,0.604-8.688,1.239    c-0.536,0.134-0.861,0.678-0.726,1.213C15.328,10.999,15.736,11.301,16.183,11.301z"/>
		<path style="fill:#8D6C9F;" d="M28,42c-0.552,0-1,0.448-1,1v2c0,0.552,0.448,1,1,1s1-0.448,1-1v-2C29,42.448,28.552,42,28,42z"/>
		<path style="fill:#8D6C9F;" d="M33,41.8c-0.552,0-1,0.448-1,1v2c0,0.552,0.448,1,1,1s1-0.448,1-1v-2    C34,42.248,33.552,41.8,33,41.8z"/>
		<path style="fill:#8D6C9F;" d="M38,41.1c-0.552,0-1,0.448-1,1v2c0,0.552,0.448,1,1,1s1-0.448,1-1v-2    C39,41.548,38.552,41.1,38,41.1z"/>
		<path style="fill:#8D6C9F;" d="M43,44c0.552,0,1-0.448,1-1v-2c0-0.552-0.448-1-1-1s-1,0.448-1,1v2C42,43.552,42.448,44,43,44z"/>
		<path style="fill:#8D6C9F;" d="M63.71,49.29l-4-4c-0.39-0.39-1.03-0.39-1.42,0L56,47.59V27c0-0.55-0.45-1-1-1h-1V15    C54,8.832,42.58,4,28,4S2,8.832,2,15v30c0,6.17,11.42,11,26,11c5.84,0,11.17-0.78,15.47-2.11l7.82,7.82C51.49,61.9,51.74,62,52,62    s0.51-0.1,0.71-0.29l11-11C64.1,50.32,64.1,49.68,63.71,49.29z M28,6c14.356,0,24,4.654,24,9s-9.644,9-24,9S4,19.346,4,15    S13.644,6,28,6z M4,19.308C7.888,23.276,17.053,26,28,26s20.112-2.724,24-6.692V26h-3c-0.55,0-1,0.45-1,1v2.851    C43.464,32.453,36.055,34,28,34c-14.356,0-24-4.654-24-9V19.308z M28,54c-14.36,0-24-4.65-24-9v-5.713    c3.213,3.304,10.078,5.782,18.856,6.504c0.028,0.002,0.056,0.003,0.083,0.003c0.515,0,0.953-0.396,0.996-0.918    c0.045-0.55-0.364-1.033-0.915-1.079C12.177,42.906,4,39.124,4,35v-5.692C7.888,33.276,17.053,36,28,36    c7.831,0,15.129-1.436,20-3.881V38.5c-0.552,0-1,0.448-1,1v2c0,0.552,0.448,1,1,1v5.09l-2.29-2.3c-0.39-0.39-1.03-0.39-1.42,0    l-4,4c-0.39,0.39-0.39,1.03,0,1.42l1.59,1.59C38.09,53.35,33.38,54,28,54z M52,59.59l-6.42-6.42h-0.01l-1.53-1.54L42.41,50    L45,47.41l2.65,2.66l0.64,0.64c0.29,0.28,0.72,0.37,1.09,0.21C49.76,50.77,50,50.4,50,50v-1.53V28h2h2v22    c0,0.4,0.24,0.77,0.62,0.92c0.37,0.16,0.8,0.07,1.09-0.21l3.29-3.3L61.59,50L52,59.59z"/>
	</g>
</g>
</svg>
